<svg xmlns="http://www.w3.org/2000/svg" viewBox="0 0 43.03 7.68"><g fill="#3c415e" stroke-width=".26" aria-label="Buttress" font-family="fira sans" font-size="10.58" font-weight="700" letter-spacing="-.02" style="line-height:2;-inkscape-font-specification:'fira sans Bold';text-align:start" word-spacing="0"><path d="M3.75 3.64q.74.14 1.2.54.46.4.46 1.2 0 1.16-.83 1.65-.82.48-2.3.48H0V.2h2q1.5 0 2.3.44.8.45.8 1.43 0 .65-.4 1.05-.38.4-.95.53zM1.55 1.3v1.85h.77q.57 0 .88-.23.3-.24.3-.73t-.33-.69q-.32-.2-1.02-.2zm.75 5.05q.73 0 1.1-.21.39-.22.39-.83 0-1.1-1.36-1.1h-.87v2.14z" font-family="Fira Sans SemiBold" style="line-height:2;-inkscape-font-specification:'Fira Sans SemiBold, Bold';text-align:start"/><path d="M11.05 7.51h-1.3l-.07-.75q-.3.47-.72.7-.43.22-.99.22-.76 0-1.16-.45-.4-.47-.4-1.3V1.9h1.5v3.85q0 .44.15.63.14.18.46.18.6 0 1.03-.73V1.9h1.5zM15.81 7.25q-.3.21-.7.32-.38.11-.76.11-.87 0-1.31-.5-.45-.48-.45-1.42v-2.8h-.83V1.9h.83V.68L14.1.5v1.4h1.3l-.15 1.06H14.1v2.76q0 .4.13.59.14.18.43.18.28 0 .63-.2zM19.76 7.25q-.3.21-.7.32-.38.11-.76.11-.87 0-1.31-.5-.44-.48-.44-1.42v-2.8h-.84V1.9h.84V.68l1.5-.18v1.4h1.29l-.15 1.06h-1.14v2.76q0 .4.14.59.13.18.42.18.28 0 .63-.2zM23.26 1.74q.25 0 .56.09l-.25 1.45q-.3-.07-.5-.07-.5 0-.77.34-.28.35-.44 1.06v2.9h-1.5v-5.6h1.3l.14 1.08q.2-.59.58-.92.4-.33.88-.33zM28.9 4.58l-.02.58h-3.5q.07.77.4 1.08.34.32.93.32.36 0 .67-.12.32-.11.7-.37l.62.85q-.95.76-2.13.76-1.32 0-2.03-.8-.71-.79-.71-2.14 0-.86.3-1.53.3-.7.87-1.08.58-.4 1.38-.4 1.2 0 1.86.76.67.75.67 2.1zm-1.49-.42q0-1.4-1-1.4-.47 0-.73.35-.26.34-.3 1.11h2.03z" letter-spacing="-.08"/><path d="M31.78 1.73q1.18 0 2.03.68l-.57.86q-.71-.45-1.4-.45-.37 0-.57.14-.2.14-.2.37 0 .17.08.29.1.11.34.22.26.1.75.25.9.25 1.33.66.43.4.43 1.11 0 .56-.33.98-.32.4-.87.63-.55.21-1.22.21-.71 0-1.3-.21-.58-.22-.99-.6l.74-.83q.71.55 1.5.55.43 0 .67-.16.26-.17.26-.45 0-.22-.1-.35-.1-.13-.35-.23-.25-.12-.8-.27-.84-.23-1.25-.65-.4-.44-.4-1.07 0-.48.27-.86.28-.38.77-.6.51-.22 1.18-.22zM36.74 1.73q1.18 0 2.03.68l-.57.86q-.71-.45-1.4-.45-.37 0-.57.14-.2.14-.2.37 0 .17.08.29.1.11.34.22.26.1.75.25.9.25 1.33.66.43.4.43 1.11 0 .56-.33.98-.31.4-.87.63-.55.21-1.22.21-.71 0-1.3-.21-.58-.22-.99-.6l.74-.83q.71.55 1.5.55.43 0 .67-.16.26-.17.26-.45 0-.22-.1-.35-.1-.13-.35-.23-.25-.12-.8-.27-.84-.23-1.25-.65-.4-.44-.4-1.07 0-.48.27-.86.28-.38.77-.6.51-.22 1.18-.22z" font-family="Fira Sans SemiBold" style="line-height:2;-inkscape-font-specification:'Fira Sans SemiBold, Bold';text-align:start"/></g><g fill="#1cb3c8" stroke-width=".26" aria-label="JS" font-family="Fira Sans SemiBold" font-size="4.94" font-weight="600" letter-spacing="0" style="line-height:1.25;-inkscape-font-specification:'Fira Sans SemiBold, Semi-Bold'" word-spacing="0"><path d="M40.03 2.99q0 .4-.14.65-.13.26-.36.4-.23.15-.55.26l-.2-.52q.22-.09.33-.2.12-.1.15-.25.04-.14.04-.37V.08h.73zM41.78 0q.37 0 .64.1.27.11.5.33l-.34.4q-.18-.15-.36-.22-.19-.07-.4-.07-.22 0-.36.1-.13.1-.13.27 0 .13.05.2.06.09.2.15.15.07.43.16.51.17.76.4.26.24.26.69 0 .32-.16.56-.16.23-.46.37-.3.14-.7.14-.41 0-.73-.13t-.54-.35l.37-.41q.2.16.4.25.22.09.47.09.27 0 .43-.13.16-.12.16-.34 0-.14-.06-.23-.05-.1-.2-.17-.13-.07-.4-.15-.55-.17-.8-.41-.23-.25-.23-.64 0-.28.15-.5.16-.22.43-.34.27-.12.62-.12z" style="-inkscape-font-specification:'Fira Sans SemiBold, Semi-Bold'"/></g></svg>